# xmcd CD database file
#
# Track frame offsets:
#	150
#	22197
#	46887
#
# Disc length: 893 seconds
#
# Revision: 3
# Processed by: cddbd v1.5PL3 Copyright (c) Steve Scherf et al.
# Submitted via: CDex 1.51
#
DISCID=1f037b03
DTITLE=cuetracks - オクリモノ
DYEAR=2003
DGENRE=JPop
TTITLE0=オクリモノ
TTITLE1=focus
TTITLE2=The day you lit my heart
EXTD=YEAR: 2003
EXTT0=
EXTT1=
EXTT2=
PLAYORDER=
